<svg width="120" height="30" viewBox="0 0 120 30" fill="none" xmlns="http://www.w3.org/2000/svg">
  <path d="M40.5 7.5H36V22.5H40.5V7.5Z" fill="#000000"/>
  <path d="M54 7.5H49.5V15.75L43.5 7.5H39V22.5H43.5V14.25L49.5 22.5H54V7.5Z" fill="#000000"/>
  <path d="M24 7.5H19.5V22.5H33V18H24V7.5Z" fill="#000000"/>
  <path d="M69 18H60V7.5H55.5V22.5H69V18Z" fill="#000000"/>
  <path d="M84 7.5H70.5V11.25H74.25V22.5H78.75V11.25H84V7.5Z" fill="#000000"/>
  <path d="M99 7.5H85.5V22.5H99V18.75H90V16.5H97.5V13.5H90V11.25H99V7.5Z" fill="#000000"/>
  <path d="M114 7.5H100.5V22.5H105V18H114C116.25 18 118.5 15.75 118.5 12.75C118.5 9.75 116.25 7.5 114 7.5ZM113.25 14.25H105V11.25H113.25C114 11.25 114.75 12 114.75 12.75C114.75 13.5 114 14.25 113.25 14.25Z" fill="#000000"/>
  <path d="M15 0L0 8.25V9.75L15 18L30 9.75V8.25L15 0Z" fill="#000000"/>
  <path d="M0 11.25V21.75L13.5 30V19.5L0 11.25Z" fill="#000000"/>
  <path d="M16.5 19.5V30L30 21.75V11.25L16.5 19.5Z" fill="#000000"/>
</svg>